<svg width="46" height="154" viewBox="0 0 46 154" fill="none" xmlns="http://www.w3.org/2000/svg">
<g filter="url(#filter0_d_672_861)">
<path d="M43 0L43 150C38.699 104.477 1.33085 96.3457 1 74.2718C1.06095 51.5642 40.8321 42.7994 43 0Z" fill="white"/>
</g>
<path d="M33.4795 76.0607C34.0653 75.4749 34.0653 74.5251 33.4795 73.9393L23.9335 64.3934C23.3477 63.8076 22.398 63.8076 21.8122 64.3934C21.2264 64.9792 21.2264 65.9289 21.8122 66.5147L30.2975 75L21.8122 83.4853C21.2264 84.0711 21.2264 85.0208 21.8122 85.6066C22.398 86.1924 23.3477 86.1924 23.9335 85.6066L33.4795 76.0607ZM31 76.5H32.4188V73.5H31V76.5Z" fill="black"/>
<defs>
<filter id="filter0_d_672_861" x="0" y="0" width="46" height="154" filterUnits="userSpaceOnUse" color-interpolation-filters="sRGB">
<feFlood flood-opacity="0" result="BackgroundImageFix"/>
<feColorMatrix in="SourceAlpha" type="matrix" values="0 0 0 0 0 0 0 0 0 0 0 0 0 0 0 0 0 0 127 0" result="hardAlpha"/>
<feOffset dx="1" dy="2"/>
<feGaussianBlur stdDeviation="1"/>
<feComposite in2="hardAlpha" operator="out"/>
<feColorMatrix type="matrix" values="0 0 0 0 0 0 0 0 0 0 0 0 0 0 0 0 0 0 0.25 0"/>
<feBlend mode="normal" in2="BackgroundImageFix" result="effect1_dropShadow_672_861"/>
<feBlend mode="normal" in="SourceGraphic" in2="effect1_dropShadow_672_861" result="shape"/>
</filter>
</defs>
</svg>
